<?xml version="1.0" encoding="utf-8"?>
<!-- Generator: Adobe Illustrator 21.1.0, SVG Export Plug-In . SVG Version: 6.00 Build 0)  -->
<svg version="1.1" id="Layer_1" xmlns="http://www.w3.org/2000/svg" xmlns:xlink="http://www.w3.org/1999/xlink" x="0px" y="0px"
	 viewBox="0 0 260 260" style="enable-background:new 0 0 260 260;" xml:space="preserve">
<style type="text/css">
	.st0{fill:#01A0C6;stroke:#01A0C6;stroke-miterlimit:10;}
	.st1{clip-path:url(#SVGID_2_);}
	.st2{clip-path:url(#SVGID_4_);fill:#FFFFFF;}
	.st3{clip-path:url(#SVGID_6_);}
	.st4{clip-path:url(#SVGID_8_);fill:#FFFFFF;}
	.st5{fill:none;}
	.st6{fill:#FFFFFF;}
	.st7{font-family:'MyriadPro-Bold';}
	.st8{font-size:168px;}
	.st9{fill:none;stroke:#FFFFFF;stroke-width:19;stroke-miterlimit:10;}
</style>
<rect class="st0" width="260" height="260"/>
<g>
	<defs>
		<rect id="SVGID_1_" x="-607" y="-756" width="1475" height="1773"/>
	</defs>
	<clipPath id="SVGID_2_">
		<use xlink:href="#SVGID_1_"  style="overflow:visible;"/>
	</clipPath>
	<g class="st1">
		<defs>
			<path id="SVGID_3_" d="M-513.7-693.9c0,6-0.2,9.3-0.4,11.2c-0.1,1.9-1.4,2.2-5.7,2.5v2.5c3.7,0,7.5-0.2,11-0.2
				c4.3,0,9.8,0.2,12.7,0.2v-2.5c-3.9-0.2-5.2-0.5-5.3-2.4c-0.1-2.1-0.2-5.7-0.2-11.2v-9.3c1.7-0.1,4.2-0.1,7.1-0.1
				c2.9,0,5.7,0,8.1,0.1v9c0,6.2-0.2,9.7-0.2,11.4c-0.1,1.8-1.3,2.2-5.2,2.5v2.5c2,0,6.6-0.2,11-0.2c4.8,0,9.7,0.2,12.1,0.2l0.2-2.5
				c-4.5-0.3-5.4-0.6-5.5-2c-0.2-2-0.3-7.1-0.3-13v-18.3c0-4.3,0.2-8.5,0.3-11.1c0.1-1.8,1.1-2.1,5.2-2.3v-2.5
				c-1.6,0.1-7.9,0.2-11.6,0.2c-2.1,0-8.5-0.2-11.1-0.2l-0.1,2.5c3.6,0.2,4.9,0.5,5,2.2c0.1,2.2,0.2,4.8,0.2,9.6v8.8
				c-2.7,0.1-5.2,0.1-8,0.1c-2.9,0-5.6,0-7.3-0.1v-7.7c0-3.9,0.1-7.9,0.2-10.2c0.2-2.1,1.1-2.5,5-2.6l0.1-2.5c-2.6,0-9.3,0.2-12,0.2
				c-2.8,0-8.5-0.2-11-0.2l-0.1,2.5c4.4,0.1,5.6,0.5,5.7,2.5c0.1,2.5,0.1,5.7,0.1,12V-693.9z M-525.7-690.7h-1.3
				c-3,7-6.7,9.8-11.2,9.8c-3.1,0-4.9-2.5-4.9-7.5c0-5.2,1.5-10.9,3.7-15.7c2.5-5.2,5.1-7.4,7.2-7.4c1.6,0,2.3,1,2.3,2.7
				c0,1.2-0.5,2.5-1,3.8c-0.4,1.2-0.2,2.3,0.5,3.1c0.7,0.7,1.8,1.1,3,1.1c2.5,0,5.4-2,5.4-5.7c0-4.5-3.4-7.5-9.5-7.5
				c-4.4,0-8,1.3-11.7,3.9c-6.7,4.9-10.6,13.6-10.6,21.2c0,7.9,3.6,12.1,11.5,12.1c7.1,0,13.4-3.8,17.1-9.8L-525.7-690.7z"/>
		</defs>
		<clipPath id="SVGID_4_">
			<use xlink:href="#SVGID_3_"  style="overflow:visible;"/>
		</clipPath>
		<rect x="-558.8" y="-734.2" class="st2" width="95.1" height="62.4"/>
	</g>
</g>
<g>
	<defs>
		<rect id="SVGID_5_" x="-607" y="-756" width="1475" height="1773"/>
	</defs>
	<clipPath id="SVGID_6_">
		<use xlink:href="#SVGID_5_"  style="overflow:visible;"/>
	</clipPath>
	<g class="st3">
		<defs>
			<path id="SVGID_7_" d="M-513.7-693.9c0,6-0.2,9.3-0.4,11.2c-0.1,1.9-1.4,2.2-5.7,2.5v2.5c3.7,0,7.5-0.2,11-0.2
				c4.3,0,9.8,0.2,12.7,0.2v-2.5c-3.9-0.2-5.2-0.5-5.3-2.4c-0.1-2.1-0.2-5.7-0.2-11.2v-9.3c1.7-0.1,4.2-0.1,7.1-0.1
				c2.9,0,5.7,0,8.1,0.1v9c0,6.2-0.2,9.7-0.2,11.4c-0.1,1.8-1.3,2.2-5.2,2.5v2.5c2,0,6.6-0.2,11-0.2c4.8,0,9.7,0.2,12.1,0.2l0.2-2.5
				c-4.5-0.3-5.4-0.6-5.5-2c-0.2-2-0.3-7.1-0.3-13v-18.3c0-4.3,0.2-8.5,0.3-11.1c0.1-1.8,1.1-2.1,5.2-2.3v-2.5
				c-1.6,0.1-7.9,0.2-11.6,0.2c-2.1,0-8.5-0.2-11.1-0.2l-0.1,2.5c3.6,0.2,4.9,0.5,5,2.2c0.1,2.2,0.2,4.8,0.2,9.6v8.8
				c-2.7,0.1-5.2,0.1-8,0.1c-2.9,0-5.6,0-7.3-0.1v-7.7c0-3.9,0.1-7.9,0.2-10.2c0.2-2.1,1.1-2.5,5-2.6l0.1-2.5c-2.6,0-9.3,0.2-12,0.2
				c-2.8,0-8.5-0.2-11-0.2l-0.1,2.5c4.4,0.1,5.6,0.5,5.7,2.5c0.1,2.5,0.1,5.7,0.1,12V-693.9z M-525.7-690.7h-1.3
				c-3,7-6.7,9.8-11.2,9.8c-3.1,0-4.9-2.5-4.9-7.5c0-5.2,1.5-10.9,3.7-15.7c2.5-5.2,5.1-7.4,7.2-7.4c1.6,0,2.3,1,2.3,2.7
				c0,1.2-0.5,2.5-1,3.8c-0.4,1.2-0.2,2.3,0.5,3.1c0.7,0.7,1.8,1.1,3,1.1c2.5,0,5.4-2,5.4-5.7c0-4.5-3.4-7.5-9.5-7.5
				c-4.4,0-8,1.3-11.7,3.9c-6.7,4.9-10.6,13.6-10.6,21.2c0,7.9,3.6,12.1,11.5,12.1c7.1,0,13.4-3.8,17.1-9.8L-525.7-690.7z"/>
		</defs>
		<clipPath id="SVGID_8_">
			<use xlink:href="#SVGID_7_"  style="overflow:visible;"/>
		</clipPath>
		<rect x="-558.8" y="-734.2" class="st4" width="95.1" height="62.4"/>
	</g>
</g>
<rect x="18.2" y="67" class="st5" width="213.5" height="126"/>
<text transform="matrix(1 0 0 1 28.0645 186.2783)" class="st6 st7 st8">SK</text>
<circle class="st9" cx="130" cy="130" r="117.9"/>
</svg>
